<?xml version="1.0" encoding="UTF-8"?>
<svg width="434px" height="100px" viewBox="0 0 434 100" version="1.1" xmlns="http://www.w3.org/2000/svg" xmlns:xlink="http://www.w3.org/1999/xlink">
    <title>dialzero-logo-white</title>
    <g id="7-27-2023" stroke="none" stroke-width="1" fill="none" fill-rule="evenodd">
        <g id="Desktop-HD-Copy-6" transform="translate(-503.000000, -462.000000)" fill="#FFFFFF" fill-rule="nonzero">
            <g id="dialzero-logo-white" transform="translate(503.505155, 462.000000)">
                <path d="M22.3493304,76.3157895 C24.6402138,76.3157895 26.8395598,75.9936952 28.9473684,75.3495066 C31.055177,74.705318 32.9214149,73.8286145 34.546082,72.7193961 C35.7065585,71.9270973 36.7174363,71.0558783 37.5787154,70.1057391 L37.801633,69.8469807 L38.2181039,75.3216048 L52.2145207,75.3216048 L52.2145207,5.77273261 L37.0844102,5.77273261 L37.082648,30.2981086 L36.6565179,29.872458 C36.2523866,29.4891855 35.8236202,29.1190798 35.3702186,28.7621407 L34.67164,28.2366071 C32.9985119,27.0334038 31.1173441,26.0942885 29.0281367,25.419261 C26.9389294,24.7442336 24.7621006,24.4067199 22.4976504,24.4067199 C18.1576989,24.4067199 14.2962386,25.5276864 10.9132695,27.7696194 C7.53030036,30.0115523 4.86567982,33.0863781 2.91940789,36.9940966 C0.973135965,40.9018151 0,45.3663456 0,50.387688 C0,55.4452538 0.97068844,59.9188401 2.91206532,63.8084469 C4.8534422,67.6980537 7.50435659,70.7550125 10.8648085,72.9793233 C14.2252604,75.2036341 18.0534344,76.3157895 22.3493304,76.3157895 Z M26.1997768,63.8495653 C23.9030193,63.8495653 21.9146499,63.2866346 20.2346687,62.160773 C18.5546875,61.0349115 17.2521147,59.4684955 16.3269502,57.4615249 C15.4017857,55.4545544 14.9392035,53.0966087 14.9392035,50.387688 C14.9392035,47.6787672 15.4017857,45.3117657 16.3269502,43.2866835 C17.2521147,41.2616013 18.5546875,39.6951852 20.2346687,38.5874354 C21.9146499,37.4796855 23.9030193,36.9258106 26.1997768,36.9258106 C28.4975133,36.9258106 30.495428,37.4796855 32.1935209,38.5874354 C33.8916138,39.6951852 35.2029977,41.2616013 36.1276727,43.2866835 C37.0523477,45.3117657 37.5146852,47.6787672 37.5146852,50.387688 C37.5146852,53.0966087 37.0523477,55.4545544 36.1276727,57.4615249 C35.2029977,59.4684955 33.8916138,61.0349115 32.1935209,62.160773 C30.495428,63.2866346 28.4975133,63.8495653 26.1997768,63.8495653 Z M73.4321256,15.5633224 C76.1919548,15.5633224 78.3763709,14.8373864 79.9853739,13.3855146 C81.5943769,11.9336427 82.3988784,10.0656916 82.3988784,7.78166118 C82.3988784,5.29987077 81.6100411,3.38247964 80.0323664,2.02948778 C78.4546917,0.676495927 76.2546115,0 73.4321256,0 C70.6713173,0 68.4866564,0.725691181 66.878143,2.17707354 C65.2696295,3.62845591 64.4653727,5.49665179 64.4653727,7.78166118 C64.4653727,10.2634516 65.2539653,12.1808427 66.8311505,13.5338346 C68.4083356,14.8868264 70.6086607,15.5633224 73.4321256,15.5633224 Z M81.0023206,75.3216048 L81.0023206,25.4405545 L65.9265452,25.4405545 L65.9265452,75.3216048 L81.0023206,75.3216048 Z M113.658866,76.2071194 C115.968351,76.2071194 118.122907,75.8581023 120.122535,75.1600681 C122.122163,74.462034 123.934066,73.5224291 125.558243,72.3412535 C126.71837,71.4975567 127.750626,70.5522126 128.655012,69.5052213 L128.753231,69.3864544 L128.753732,75.3216048 L143.924961,75.3216048 L143.924961,25.4405545 L129.023939,25.4405545 L129.023437,31.4564732 L128.814675,31.1784923 C128.139159,30.3290313 127.389237,29.5403088 126.56491,28.812325 L125.932715,28.2777256 C124.425039,27.0569001 122.677751,26.1065261 120.69085,25.4266036 C118.703949,24.7466812 116.516107,24.4067199 114.127322,24.4067199 C109.804014,24.4067199 105.957728,25.5120222 102.588465,27.7226269 C99.2192024,29.9332315 96.570246,32.9833372 94.6415963,36.8729441 C92.7129465,40.7625509 91.7486216,45.2361372 91.7486216,50.293703 C91.7486216,55.2886122 92.7151493,59.7374785 94.6482046,63.6403019 C96.5812599,67.5431254 99.1969299,70.6133008 102.495215,72.8508282 C105.793499,75.0883557 109.514717,76.2071194 113.658866,76.2071194 Z M117.869099,63.5015273 C115.598774,63.5015273 113.63023,62.960869 111.963465,61.8795524 C110.296701,60.7982358 109.000981,59.2675536 108.076306,57.2875059 C107.151631,55.3074581 106.689294,52.9761905 106.689294,50.293703 C106.689294,47.6376488 107.151631,45.3173951 108.076306,43.3329417 C109.000981,41.3484884 110.296701,39.8156035 111.963465,38.7342869 C113.63023,37.6529703 115.598774,37.112312 117.869099,37.112312 C120.166835,37.112312 122.16475,37.6529703 123.862843,38.7342869 C125.560936,39.8156035 126.87232,41.3484884 127.796995,43.3329417 C128.721669,45.3173951 129.184007,47.6376488 129.184007,50.293703 C129.184007,52.9761905 128.721669,55.3074581 127.796995,57.2875059 C126.87232,59.2675536 125.560936,60.7982358 123.862843,61.8795524 C122.16475,62.960869 120.166835,63.5015273 117.869099,63.5015273 Z M172.569087,75.3216048 L172.569087,5.77273261 L157.493312,5.77273261 L157.493312,75.3216048 L172.569087,75.3216048 Z" id="dial"></path>
                <path d="M226.349992,75.3216048 L226.349992,63.1255874 L203.743832,63.1270559 L225.570211,34.4131814 L225.570211,25.4405545 L184.178646,25.4405545 L184.178646,37.6351034 L206.859434,37.6359845 L184.178646,66.699953 L184.178646,75.3216048 L226.349992,75.3216048 Z M260.844992,76.2614544 C263.127064,76.2614544 265.402284,75.9954084 267.67065,75.4633165 C269.939016,74.9312245 272.172138,74.1372474 274.370016,73.0813851 C276.567893,72.0255228 278.652205,70.655643 280.622953,68.9717458 L280.622953,68.9717458 L273.524151,58.981438 C271.619976,60.5008615 269.834262,61.5689615 268.167008,62.1857378 C266.499754,62.8025141 264.606349,63.1109023 262.486792,63.1109023 C259.399973,63.1109023 256.74759,62.547482 254.529643,61.4206414 C252.311696,60.2938009 250.61703,58.7043781 249.445644,56.6523731 C248.913196,55.7196436 248.501759,54.7134883 248.211333,53.6339072 L248.203419,53.60168 L282.489435,53.6007989 L282.58342,49.5726621 C282.6823,45.947388 282.165383,42.5969709 281.032668,39.5214109 C279.899954,36.445851 278.270392,33.7800067 276.143982,31.5238781 C274.017572,29.2677495 271.495153,27.5106712 268.576724,26.2526433 C265.658295,24.9946154 262.457422,24.3656015 258.974104,24.3656015 C255.303795,24.3656015 251.917889,25.0078321 248.816385,26.2922932 C245.714882,27.5767544 243.034107,29.393797 240.774063,31.7434211 C238.514018,34.0930451 236.757429,36.8656015 235.504297,40.0610902 C234.251164,43.2565789 233.624597,46.7609453 233.624597,50.5741894 C233.624597,55.5690985 234.745564,59.9912868 236.987497,63.8407542 C239.22943,67.6902216 242.389429,70.7227052 246.467496,72.9382049 C250.545562,75.1537046 255.338061,76.2614544 260.844992,76.2614544 Z M268.612253,45.1923755 L248.139979,45.1923755 L248.166479,45.0784187 C248.325784,44.4266917 248.524915,43.8117511 248.763871,43.2335967 L249.016103,42.6677044 C249.901129,40.8222705 251.196848,39.4102933 252.903263,38.4317728 C254.609677,37.4532523 256.705248,36.963992 259.189976,36.963992 C260.924781,36.963992 262.484834,37.3078693 263.870133,37.9956238 C265.255432,38.6833784 266.372483,39.6349761 267.221284,40.8504171 C268.070086,42.065858 268.534137,43.4558075 268.613437,45.0202655 L268.613437,45.0202655 L268.612253,45.1923755 Z M307.425355,75.3216048 L307.425355,50.3318844 C307.425355,48.8388941 307.66203,47.4956924 308.135382,46.3022791 C308.608733,45.1088659 309.263201,44.067444 310.098786,43.1780134 C310.934371,42.2885828 311.939815,41.604989 313.115116,41.1272321 C314.290418,40.6494753 315.561907,40.4105968 316.929584,40.4105968 C318.202297,40.4105968 319.418962,40.5650356 320.579578,40.8739133 C321.740194,41.182791 322.660219,41.5300948 323.339652,41.9158247 L323.339652,41.9158247 L327.442683,25.2922345 C326.662412,25.0416079 325.777877,24.8313655 324.789076,24.6615073 C323.800276,24.491649 322.755183,24.4067199 321.653797,24.4067199 C319.047672,24.4067199 316.573959,25.0244753 314.232656,26.2599859 C311.891354,27.4954966 309.863334,29.1833098 308.148598,31.3234258 C307.767546,31.7990071 307.41005,32.2876418 307.076111,32.7893301 L306.918174,33.0377702 L306.616203,25.4405545 L292.309929,25.4405545 L292.309929,75.3216048 L307.425355,75.3216048 Z" id="zero"></path>
                <path d="M383.936352,3.27405428 C393.298951,3.27405428 401.649846,5.30901554 408.989036,9.37893806 C416.328226,13.4488606 422.102539,19.0143463 426.311977,26.0753953 C430.521414,33.1364443 432.626133,41.2247489 432.626133,50.340309 C432.626133,59.4576463 430.521414,67.5463952 426.311977,74.6065555 C422.102539,81.6667159 416.328226,87.2322017 408.989036,91.3030128 C401.649846,95.373824 393.298951,97.4092295 383.936352,97.4092295 C377.236227,97.4092295 371.053002,96.3774581 365.386675,94.3139152 C360.53883,97.936409 355.824704,99.7478367 351.244278,99.7478367 C345.937145,99.7478367 338.455191,97.3160294 328.798415,92.4524149 C341.770161,91.5874436 348.793048,89.1005192 349.867074,84.9916417 C346.541131,81.9912467 343.700773,78.5296533 341.343458,74.6065555 C337.101141,67.5463952 334.979983,59.4576463 334.979983,50.340309 C334.979983,41.2247489 337.101141,33.1364443 341.343458,26.0753953 C345.585774,19.0143463 351.392523,13.4488606 358.763704,9.37893806 C366.134884,5.30901554 374.525767,3.27405428 383.936352,3.27405428 Z M383.936352,26.6565589 C379.830884,26.6565589 376.167954,27.6829259 372.947561,29.7356597 C369.727168,31.7883936 367.200351,34.5955738 365.367108,38.1572003 C363.533866,41.7188268 362.641238,45.779863 362.689224,50.340309 C362.641238,54.8349963 363.533866,58.8635976 365.367108,62.4261127 C367.200351,65.9886279 369.727168,68.7962524 372.947561,70.8489862 C376.167954,72.9017201 379.830884,73.928087 383.936352,73.928087 L384.450461,73.9224865 C384.546987,73.9203722 384.643264,73.9176581 384.739291,73.9143426 C384.809494,73.9119673 384.879586,73.909234 384.949547,73.9061818 C385.03897,73.9021796 385.127776,73.897751 385.216363,73.8927989 C385.290675,73.8888355 385.365175,73.884326 385.439523,73.8794499 L385.464631,73.8775102 L385.464631,73.8775102 L385.58012,73.8697789 C385.709295,73.8604792 385.838012,73.8500671 385.966272,73.8385425 C386.892841,74.9273595 387.924151,76.0099898 389.059343,77.086911 C391.777968,79.6659848 395.066693,80.489442 398.925518,79.5572824 C395.319627,77.0071834 393.25698,74.4870567 392.738869,71.9978185 L392.738869,71.9978185 L393.157178,71.7898226 C393.1746,71.7808917 393.19201,71.7719328 393.209409,71.762946 C393.263586,71.7349627 393.317703,71.706681 393.371708,71.6781275 C393.485094,71.6181784 393.59801,71.5570196 393.710433,71.4946623 C393.756159,71.4692983 393.801486,71.443916 393.846732,71.4183381 C393.960109,71.3542502 394.073433,71.2886669 394.186249,71.2218461 L394.287888,71.1612282 L394.287888,71.1612282 L394.330022,71.1358537 C394.48448,71.0425686 394.637978,70.9469461 394.790516,70.8489862 C397.986915,68.7962524 400.485741,65.9886279 402.286993,62.4261127 C404.088245,58.8635976 404.964878,54.8349963 404.916892,50.340309 C404.964878,45.731877 404.088245,41.6468478 402.286993,38.0852213 C400.485741,34.5235948 397.986915,31.7284111 394.790516,29.6996702 C391.594116,27.6709294 387.976061,26.6565589 383.936352,26.6565589 Z M374.595361,48.0263158 C376.048742,48.0263158 377.22694,49.2045138 377.22694,50.6578947 C377.22694,52.1112757 376.048742,53.2894737 374.595361,53.2894737 C373.141981,53.2894737 371.963783,52.1112757 371.963783,50.6578947 C371.963783,49.2045138 373.141981,48.0263158 374.595361,48.0263158 Z M383.805888,48.0263158 C385.259269,48.0263158 386.437467,49.2045138 386.437467,50.6578947 C386.437467,52.1112757 385.259269,53.2894737 383.805888,53.2894737 C382.352507,53.2894737 381.174309,52.1112757 381.174309,50.6578947 C381.174309,49.2045138 382.352507,48.0263158 383.805888,48.0263158 Z M393.016414,48.0263158 C394.469795,48.0263158 395.647993,49.2045138 395.647993,50.6578947 C395.647993,52.1112757 394.469795,53.2894737 393.016414,53.2894737 C391.563033,53.2894737 390.384835,52.1112757 390.384835,50.6578947 C390.384835,49.2045138 391.563033,48.0263158 393.016414,48.0263158 Z" id="Combined-Shape"></path>
            </g>
        </g>
    </g>
</svg>