<?xml version="1.0" encoding="UTF-8"?>
<svg width="216px" height="200px" viewBox="0 0 216 200" version="1.1" xmlns="http://www.w3.org/2000/svg" xmlns:xlink="http://www.w3.org/1999/xlink">
    <title>dialzero-icon</title>
    <g id="7-27-2023" stroke="none" stroke-width="1" fill="none" fill-rule="evenodd">
        <g id="Desktop-HD-Copy-16" transform="translate(-599.000000, -412.000000)" fill="#4700B9" fill-rule="nonzero">
            <path d="M713.683843,412 C733.093467,412 750.405724,416.218682 765.620614,424.656047 C780.835504,433.093412 792.806245,444.631232 801.532839,459.269508 C810.259432,473.907783 814.622729,490.675664 814.622729,509.573151 C814.622729,528.474322 810.259432,545.243124 801.532839,559.879557 C792.806245,574.515991 780.835504,586.053811 765.620614,594.493018 C750.405724,602.932225 733.093467,607.151829 713.683843,607.151829 C699.793636,607.151829 686.97504,605.012811 675.228053,600.734775 C665.177856,608.244931 655.405267,612 645.909836,612 C634.907608,612 619.396753,606.958615 599.377271,596.875846 C626.26667,595.082829 640.825635,589.927927 643.054166,581.411139 C636.161412,575.190824 630.272077,568.0137 625.384424,559.879557 C616.589669,545.243124 612.192291,528.474322 612.192291,509.573151 C612.192291,490.675664 616.589669,473.907783 625.384424,459.269508 C634.17918,444.631232 646.217163,433.093412 661.498373,424.656047 C676.779583,416.218682 694.174739,412 713.683843,412 Z M713.683843,460.474319 C705.172789,460.474319 697.579161,462.602083 690.902958,466.85761 C684.226755,471.113136 678.988404,476.932707 675.187905,484.316323 C671.387406,491.699938 669.536897,500.118881 669.636377,509.573151 C669.536897,518.891097 671.387406,527.242798 675.187905,534.628256 C678.988404,542.013714 684.226755,547.834206 690.902958,552.089733 C697.579161,556.34526 705.172789,558.473023 713.683843,558.473023 C713.949873,558.473023 714.215021,558.470876 714.479287,558.466582 C714.541751,558.465562 714.604119,558.464427 714.666437,558.463172 C714.865038,558.459183 715.063013,558.453974 715.260489,558.44755 C715.337902,558.444998 715.415854,558.442266 715.493727,558.439344 C715.686653,558.432162 715.878547,558.423798 716.069966,558.414276 C716.144563,558.410447 716.219155,558.406546 716.293674,558.402467 C716.543232,558.388992 716.792092,558.373392 717.04014,558.355816 L717.06038,558.354064 L717.06038,558.354064 L717.156402,558.347428 C717.383765,558.330734 717.610443,558.312375 717.836439,558.292352 L717.889145,558.287033 C719.812096,560.543725 721.95049,562.788576 724.304326,565.021587 C729.940313,570.368271 736.758176,572.075382 744.757915,570.14292 C737.283771,564.857179 733.007873,559.633554 731.93019,554.472425 C731.972041,554.452256 732.013861,554.432011 732.055649,554.411689 C732.231863,554.326 732.407891,554.238768 732.58336,554.150174 C732.623848,554.129732 732.664149,554.109296 732.704421,554.088789 C733.141674,553.866133 733.575509,553.634958 734.00586,553.3953 L734.086367,553.350344 C734.146977,553.316408 734.207518,553.282303 734.26799,553.248029 C734.405769,553.169937 734.54299,553.091087 734.679852,553.011364 C734.753332,552.968561 734.826703,552.92551 734.899971,552.882208 C735.078178,552.776884 735.255836,552.670035 735.432882,552.561697 L735.4922,552.525329 L735.4922,552.525329 L735.519772,552.508377 C735.742698,552.371195 735.964651,552.231647 736.185632,552.089733 C742.812095,547.834206 747.992416,542.013714 751.726595,534.628256 C755.460774,527.242798 757.278123,518.891097 757.178643,509.573151 C757.278123,500.019401 755.460774,491.550719 751.726595,484.167103 C747.992416,476.783488 742.812095,470.988787 736.185632,466.783 C729.559169,462.577213 722.058572,460.474319 713.683843,460.474319 Z M694.319016,504.776007 C697.332023,504.776007 699.774548,507.218532 699.774548,510.231539 C699.774548,513.244546 697.332023,515.687071 694.319016,515.687071 C691.306009,515.687071 688.863484,513.244546 688.863484,510.231539 C688.863484,507.218532 691.306009,504.776007 694.319016,504.776007 Z M713.413377,504.776007 C716.426384,504.776007 718.868909,507.218532 718.868909,510.231539 C718.868909,513.244546 716.426384,515.687071 713.413377,515.687071 C710.40037,515.687071 707.957845,513.244546 707.957845,510.231539 C707.957845,507.218532 710.40037,504.776007 713.413377,504.776007 Z M732.507738,504.776007 C735.520746,504.776007 737.96327,507.218532 737.96327,510.231539 C737.96327,513.244546 735.520746,515.687071 732.507738,515.687071 C729.494731,515.687071 727.052207,513.244546 727.052207,510.231539 C727.052207,507.218532 729.494731,504.776007 732.507738,504.776007 Z" id="dialzero-icon"></path>
        </g>
    </g>
</svg>